<svg xmlns="http://www.w3.org/2000/svg" xmlns:xlink="http://www.w3.org/1999/xlink" width="297" height="212.144" viewBox="0 0 297 212.144"><defs><style>.a{fill:#77c26c;}.b{fill:#0a9c81;}.c{fill:#52bbd0;}.ab,.ad,.aj,.d,.g,.z{fill:none;}.e{fill:#0094ca;}.f{fill:#e9f5fc;}.g{stroke:#52bbd0;stroke-dasharray:20 20;}.ab,.ad,.aj,.g,.z{stroke-miterlimit:10;}.ad,.g{stroke-width:4px;}.h,.n{fill:#231f20;}.h,.m,.x{opacity:0.1;}.i{fill:#acdfea;}.j,.t{fill:#fff;}.k{fill:#45a0be;}.l{fill:#ddd9d8;}.o{fill:#005793;}.p{fill:#d61a36;}.q{fill:#ea394a;}.r{fill:#72c7ec;}.s{fill:#0a2d4e;}.t{opacity:0.3;}.u{fill:#fde7ca;}.v{fill:#51666f;}.w{fill:#d5594d;}.y{clip-path:url(#a);}.z{stroke:#0a9c81;}.ab,.z{stroke-width:3px;}.aa{clip-path:url(#b);}.ab{stroke:#77c26c;}.ac{fill:#ffc73c;}.ad{stroke:#fff;}.ae{fill:#0b2d4e;}.af{clip-path:url(#c);}.ag{clip-path:url(#d);}.ah{fill:#f69f7a;}.ai{fill:#e3785c;}.aj{stroke:#0a2d4e;stroke-width:5px;}.ak{fill:#72b6d2;}.al{fill:#0778a0;}.am{fill:#f8a17a;}.an{clip-path:url(#e);}.ao{fill:#e4eaef;}.ap{fill:#b6e4f8;}</style><clipPath id="a"><path class="a" d="M453.534,887.8a3.73,3.73,0,0,0,3.419-1.436c1.731-2.479,4.373-4.7,7.336-2.184,1.709,1.454.424,4.445,1.895,5.884,1.3,1.273,2.955,1.061,3.62,3.174.979,3.107-2.106,5.829-3.1,8.515-.831,2.254,1.037,3.113,1.878,4.87a4.425,4.425,0,0,1-.39,4.1c-1.244,2.283-4,4.121-3.363,7.077.53,2.467,1.029,4.667-1.148,6.536-1.492,1.281-4.261,2.45-4.05,4.822a25.144,25.144,0,0,0,.815,2.382,4,4,0,0,1-1.582,3.483,33.635,33.635,0,0,0-5.89,6.548c-.718,1.1-3.591,3.583-2.44,5.092-2.088-2.732-4.293-5.383-6.189-8.256-1.559-2.363-3.911-5.819-2.31-8.73.5-.9,1.423-1.579,1.677-2.582.458-1.8-1.318-3.486-1.979-5.024a6.46,6.46,0,0,1,1.551-7.035,5.409,5.409,0,0,0,1.93-3.012c.139-1.323-.691-2.556-1.067-3.776a18.824,18.824,0,0,1-.689-3.489,7.262,7.262,0,0,1,.07-2.476c.369-1.534,1.75-2.388,2.774-3.476,2.44-2.591,1.155-5.639,2.219-8.651C449.474,887.448,451.549,887.811,453.534,887.8Z" transform="translate(-441.268 -883.07)"/></clipPath><clipPath id="b"><path class="b" d="M314.581,1085.888a2.753,2.753,0,0,1-2.678-.568c-1.6-1.558-3.819-2.807-5.622-.569-1.038,1.291.308,3.283-.56,4.53-.767,1.1-2,1.18-2.186,2.8-.28,2.389,2.334,3.936,3.424,5.748.914,1.52-.318,2.4-.687,3.792a3.278,3.278,0,0,0,.849,2.919c1.218,1.485,3.473,2.44,3.419,4.667-.046,1.864-.1,3.527,1.737,4.583,1.26.723,3.43,1.187,3.607,2.937.062.62-.26,1.219-.261,1.841a2.96,2.96,0,0,0,1.629,2.308,24.845,24.845,0,0,1,5.18,3.934c.673.7,3.1,2.1,2.476,3.352,1.136-2.271,2.369-4.5,3.347-6.846.8-1.93,2.031-4.763.468-6.652-.486-.588-1.252-.949-1.574-1.64-.582-1.249.474-2.71.743-3.918a4.769,4.769,0,0,0-2.1-4.888,4.019,4.019,0,0,1-1.816-1.918c-.283-.94.147-1.95.251-2.886a13.9,13.9,0,0,0,.017-2.626,5.342,5.342,0,0,0-.394-1.786c-.48-1.061-1.6-1.485-2.493-2.137-2.121-1.543-1.619-3.931-2.807-5.969C317.478,1085.069,316.022,1085.622,314.581,1085.888Z" transform="translate(-303.513 -1083.535)"/></clipPath><clipPath id="c"><circle class="c" cx="13.548" cy="13.548" r="13.548"/></clipPath><clipPath id="d"><rect class="d" width="297" height="212.086" transform="translate(297 212.086) rotate(180)"/></clipPath><clipPath id="e"><path class="e" d="M2031.113,839.38s-18.11.7-25.046.8c-6.485.1-12.888.439-19.349-.43a.738.738,0,0,1-.487-.2.7.7,0,0,1-.112-.478c-.015-7.567-.291-15.056-.3-22.628q-.016-15.89.293-31.778c.148-7.629-.573-21.554,9.964-22.546,3.587-.337,7.2-.731,10.809-.78v-.008h.772v.008c3.614.036,7.223.417,10.811.742,4.362.395,7.227,3.467,8.542,7.472a25.237,25.237,0,0,1,1.1,6.163,73.164,73.164,0,0,1,.51,8.182l-1.061,26.1a28.651,28.651,0,0,0,.031,4.137C2028.286,820.855,2031.113,839.38,2031.113,839.38Z" transform="translate(-1985.813 -761.34)"/></clipPath></defs><g transform="translate(0 141.09)"><g transform="translate(0 -141.09)"><path class="f" d="M592.2,326.528a53.159,53.159,0,0,1-4.236-7.581c-3.112-7.25-3.182-15.413-2.766-23.292s1.239-15.855-.251-23.6-5.765-15.439-12.907-18.791c-8.8-4.128-17.518-1.9-26.746-2.7-12.894-1.118-23.23-10.553-33.85-17.951-6.508-4.533-14.543-8.576-22.089-6.139-7.855,2.537-12.111,11.1-19.234,15.275-14.85,8.7-34.454-.608-50.455.341-6.287.372-13.153,2.468-16.272,7.943-5.742,10.1,1.568,21.04-6.715,30.727-6.982,8.168-18.431,12.517-18.3,24.728a16.635,16.635,0,0,0,.627,4.487,32.96,32.96,0,0,0,2.515,5.612c3.1,6.079,5.526,12.8,4.909,19.594-.555,6.1-3.491,11.683-5.882,17.324s-4.294,11.92-2.681,17.83c2.132,7.809,9.689,12.729,16.893,16.425,5.271,2.7,11.5,4.435,16.5,7.521,4.411,2.723,8.254,5.622,13.213,7.594,10.447,4.148,21.728,5.755,32.868,6.676a307.863,307.863,0,0,0,43.029.54c18.278-1.051,36.743-4.01,53.792-10.893,12.025-4.855,25.179-6.483,35.331-15.324a38.556,38.556,0,0,0,11.66-38.187A56.642,56.642,0,0,0,594.1,329.5C593.476,328.5,592.837,327.516,592.2,326.528Z" transform="translate(-337.257 -201.797)"/><path class="g" d="M458.256,385.931a214.486,214.486,0,0,0,22.7-7.726c6.778-2.741,13.916-6.318,16.752-12.586,2.923-6.46.187-14.244-5.186-19.212-3.7-3.421-8.989-6.7-8.575-11.494.221-2.566,2.113-4.7,3.483-6.951,5.474-8.987-3.015-16.472-12.5-17.688-8.692-1.115-22.871,6.718-30.354,1.273-2.463-1.786-3.271-4.9-3.271-7.784,0-8.38.878-20.484-12.795-17.668-9.7,2-17.56,7.648-26.479,11.3-11.244,4.6-44.789,14.3-53.7,1.343-2.348-3.416-.113-9.2,4.291-9.031,3.978.155,6.024,5,4.48,8.362-2.78,6.046-11.169,8.214-17.086,9.074-13.654,1.981-28.1,2.758-41.175,7.992-7.41,2.97-14.6,7.531-19.384,14.04-2,2.723-4.831,7.171-4.953,10.668-.151,4.343,3.69,8.457,4.94,12.467,1.881,6.036-.088,12.6-2.833,18.293s-6.305,11.083-7.865,17.208c-1.921,7.541-.593,15.681,2.719,22.723s8.5,13.067,14.311,18.245" transform="translate(-239.448 -255.376)"/><rect class="h" width="130.947" height="93.568" transform="translate(84.427 45.35)"/><rect class="a" width="130.947" height="93.568" transform="translate(82.247 42.989)"/><rect class="b" width="121.624" height="84.836" transform="translate(86.909 47.355)"/><path class="h" d="M940.944,305.34H819.32v84.836h3.39V308.73H940.944Z" transform="translate(-732.411 -257.985)"/><path class="i" d="M291.112,1454.662a9.462,9.462,0,0,0,3.513,1c4.765.192,8.16-5.555,12.929-5.516,3.674.028,6.673,3.54,10.348,3.457,4.78-.106,6.211-4.927,9.252-7.6,3.091-2.716,7.7-6.533,12.083-5.963,4.541.59,7.767,5.391,12.335,5.708,3.261.226,6.2-1.929,8.486-4.271s4.36-5.049,7.3-6.481a10.488,10.488,0,0,1,9.154.055c2.723,1.366,4.693,3.843,7.01,5.823s5.468,3.539,8.344,2.535c2.066-.721,3.478-2.582,5.037-4.122a15.256,15.256,0,0,1,10.75-4.728c6.1.132,10.323,4.527,14.544,8.341,3.126,2.825,6.392,8.553,11.113,8.563,5.375.012,8.681-7.472,14.043-7.093,4.964.35,7.433,7.223,12.378,7.778,5.75.647,11.012-7.67,15.94-4.627,2.68,1.655,3.281,6.046,6.364,6.708,3.113.665,5.44-3.191,8.592-3.638,2.525-.359,4.893,1.682,5.8,4.074,6.912,18.234-28.986,20.006-38.717,20.006a89.43,89.43,0,0,1-25.442-3.361c-10.554,7.114-31.645,11.967-55.945,11.967-24.411,0-45.584-4.9-56.09-12.065a98.491,98.491,0,0,1-49.751.521c-4.469-1.254-13.983-3.422-13.8-9.592.106-3.531,3.19-6.425,6.583-7.367a11.927,11.927,0,0,1,5.482-.212c3.626.717,7.615,3.04,10.667.949,1.186-.812,1.938-2.176,3.189-2.884C285.286,1451.1,288.128,1453.268,291.112,1454.662Z" transform="translate(-229.45 -1281.867)"/><rect class="j" width="297" height="34.015" transform="translate(0 178.071)"/><path class="f" d="M2020.88,153.408a1.887,1.887,0,0,0-1.578-1.81c-.348.007-.69.1-1.036.082a2.255,2.255,0,0,1-1.764-1.364,2.037,2.037,0,0,0-1.972-1.128c-1.3.219-1.956,1.934-3.434.646-.967-.849-1.041-2.023-2.136-2.841a3.573,3.573,0,0,0-2.984-.583c-1.316.405-1.8,1.71-3.207,1.937a3.231,3.231,0,0,1-3.163-1.781c-.6-1.033-.824-2.15-1.34-3.2a3.522,3.522,0,0,0-3.153-2.249c-1.452.024-2.092.943-2.8,1.673-.927.949-2.853,4.358-5.014,3.946-.842-.16-1.263-.83-2.023-1.129a3.455,3.455,0,0,0-3.516,1.013c-.736.833-1.028,1.838-1.861,2.626a1.923,1.923,0,0,1-.815.489c-1.167.318-2.244-.66-3.489-.733a2.9,2.9,0,0,0-2.149.849,10.691,10.691,0,0,0-1.14,1.613,1.208,1.208,0,0,1-.415.4,3.323,3.323,0,0,1-1.982-.069c-1.653-.284-3.529.474-3.995,1.614Z" transform="translate(-1757.377 -126.147)"/><path class="f" d="M202.333,318.937a1.237,1.237,0,0,1,1.035-1.187c.228,0,.452.065.68.053a1.48,1.48,0,0,0,1.157-.894,1.345,1.345,0,0,1,1.293-.743c.849.143,1.282,1.273,2.252.424.636-.553.682-1.326,1.4-1.863a2.346,2.346,0,0,1,1.956-.383c.862.265,1.184,1.121,2.1,1.273a2.119,2.119,0,0,0,2.074-1.167c.395-.678.541-1.41.878-2.1a2.314,2.314,0,0,1,2.067-1.474,2.477,2.477,0,0,1,1.839,1.1c.608.623,1.871,2.857,3.288,2.587.553-.106.828-.544,1.327-.743a2.261,2.261,0,0,1,2.305.664c.483.545.674,1.205,1.22,1.722a1.261,1.261,0,0,0,.53.318c.762.212,1.471-.433,2.287-.48a1.9,1.9,0,0,1,1.409.555,6.369,6.369,0,0,1,.743,1.061.79.79,0,0,0,.272.265,2.176,2.176,0,0,0,1.3-.046,2.494,2.494,0,0,1,2.619,1.061Z" transform="translate(-180.866 -277.901)"/><path class="c" d="M604.23,1601.745H569.273c-2.908,0-5.263-1.834-5.263-4.1v-1.05c0-2.263,2.357-4.1,5.263-4.1H604.23v1.261H571.7a1.843,1.843,0,0,0-2.025,1.576v3.572a1.843,1.843,0,0,0,2.025,1.576H604.23Z" transform="translate(-504.183 -1423.576)"/><path class="k" d="M642.4,1601.745H607.443c-2.908,0-5.263-1.834-5.263-4.1v-1.05c0-2.263,2.357-4.1,5.263-4.1H642.4v1.261H607.443c-2.015,0-3.645,1.273-3.645,2.836v1.05c0,1.567,1.631,2.836,3.645,2.836H642.4Z" transform="translate(-538.304 -1423.576)"/><path class="j" d="M654.257,1611.113h-34.4a3.361,3.361,0,0,1-3.362-3.361h0a3.361,3.361,0,0,1,3.362-3.361h34.4Z" transform="translate(-551.105 -1434.205)"/><path class="l" d="M634.31,1630.085q3.925-.106,7.85-.148c2.615-.031,5.231-.038,7.849-.042s5.231.012,7.849.041,5.231.075,7.85.15q-3.925.111-7.85.15c-2.615.031-5.23.038-7.849.041s-5.231-.012-7.849-.042S636.929,1630.159,634.31,1630.085Z" transform="translate(-567.026 -1457.004)"/><path class="l" d="M674.07,1649.725q3.925-.106,7.85-.148c2.615-.031,5.231-.038,7.849-.042s5.231.012,7.849.042,5.231.075,7.85.149q-3.925.112-7.85.15c-2.615.031-5.23.038-7.849.041s-5.231-.012-7.849-.042S676.685,1649.8,674.07,1649.725Z" transform="translate(-602.568 -1474.56)"/><g class="m" transform="translate(65.716 170.185)"><path class="n" d="M619.53,1606.258a3.276,3.276,0,0,1,3.04-1.868h34.464v2.114" transform="translate(-619.53 -1604.39)"/></g><path class="o" d="M600.37,1492.4h36.577a3.648,3.648,0,0,0,3.644-3.645v-4.589a3.648,3.648,0,0,0-3.644-3.645H600.37v1.62h36.577a2.027,2.027,0,0,1,2.025,2.025v4.589a2.027,2.027,0,0,1-2.025,2.025H600.37Z" transform="translate(-536.686 -1323.475)"/><path class="j" d="M609.28,1504.429h35.733a2.025,2.025,0,0,0,2.025-2.025v-4.589a2.025,2.025,0,0,0-2.025-2.025H609.28Z" transform="translate(-544.651 -1337.125)"/><g class="m" transform="translate(64.629 158.665)"><path class="n" d="M647.037,1497.815a2.025,2.025,0,0,0-2.025-2.025H609.28v2.114" transform="translate(-609.28 -1495.79)"/></g><path class="l" d="M653.548,1529.345q-3.925-.128-7.85-.172c-2.615-.035-5.231-.044-7.849-.049s-5.231.014-7.85.049-5.23.087-7.849.173q3.925.128,7.849.173c2.615.035,5.231.044,7.85.049s5.231-.014,7.849-.049S650.933,1529.429,653.548,1529.345Z" transform="translate(-556.156 -1366.923)"/><path class="l" d="M680.268,1546.875q-3.925-.128-7.85-.172c-2.615-.035-5.231-.044-7.849-.049s-5.231.014-7.85.049-5.23.087-7.849.173q3.925.128,7.849.173c2.615.035,5.231.044,7.85.049s5.231-.014,7.849-.049S677.653,1546.961,680.268,1546.875Z" transform="translate(-580.041 -1382.594)"/><path class="k" d="M640.35,1345.505h34.957c2.908,0,5.263-1.834,5.263-4.1v-1.05c0-2.263-2.357-4.1-5.263-4.1H640.35v1.261h32.528a1.843,1.843,0,0,1,2.025,1.576v3.571a1.843,1.843,0,0,1-2.025,1.576H640.35Z" transform="translate(-572.425 -1194.517)"/><path class="o" d="M602.18,1345.505h34.957c2.908,0,5.263-1.834,5.263-4.1v-1.05c0-2.263-2.357-4.1-5.263-4.1H602.18v1.261h34.957c2.015,0,3.645,1.273,3.645,2.836v1.05c0,1.567-1.631,2.836-3.645,2.836H602.18Z" transform="translate(-538.304 -1194.517)"/><path class="j" d="M611.09,1354.874h34.4a3.362,3.362,0,0,0,3.357-3.363h0a3.362,3.362,0,0,0-3.362-3.361H611.09Z" transform="translate(-546.269 -1205.146)"/><path class="l" d="M684.628,1373.855q-3.925-.106-7.85-.149c-2.615-.031-5.231-.038-7.849-.042s-5.231.012-7.849.041-5.231.075-7.85.15q3.925.111,7.85.15c2.615.031,5.231.038,7.849.041s5.231-.012,7.849-.042S682.013,1373.928,684.628,1373.855Z" transform="translate(-583.939 -1227.953)"/><path class="l" d="M644.868,1393.485q-3.925-.106-7.85-.149c-2.615-.031-5.231-.038-7.849-.042s-5.231.012-7.849.041-5.231.075-7.85.15q3.925.111,7.85.15c2.615.031,5.231.038,7.849.041s5.231-.012,7.849-.042S642.252,1393.559,644.868,1393.485Z" transform="translate(-548.396 -1245.501)"/><g class="m" transform="translate(64.753 143.004)"><path class="n" d="M647.953,1350.018a3.276,3.276,0,0,0-3.04-1.868H610.45v2.114" transform="translate(-610.45 -1348.15)"/></g><rect class="p" width="44.27" height="6.242" transform="translate(60.907 150.989)"/><rect class="q" width="1.671" height="4.319" transform="translate(64.905 151.951)"/><rect class="q" width="1.671" height="4.319" transform="translate(73.205 151.951)"/><rect class="q" width="4.708" height="6.242" transform="translate(67.587 150.989)"/><rect class="r" width="44.27" height="6.242" transform="translate(56.857 125.906)"/><rect class="e" width="1.671" height="6.242" transform="translate(95.459 125.906)"/><rect class="e" width="2.562" height="6.242" transform="translate(91.885 125.906)"/><rect class="q" width="44.27" height="9.679" transform="translate(61.266 132.149)"/><rect class="p" width="1.671" height="6.436" transform="translate(65.265 133.64)"/><rect class="p" width="1.671" height="6.436" transform="translate(100.965 133.64)"/><rect class="p" width="1.671" height="6.436" transform="translate(97.962 133.64)"/><circle class="p" cx="3.218" cy="3.218" r="3.218" transform="translate(68.497 133.639)"/><rect class="e" width="2.277" height="6.719" transform="translate(91.42 145.902)"/><path class="q" d="M1736.248,1605.792H1703.04c-2.758,0-5-1.743-5-3.892v-1c0-2.15,2.239-3.892,5-3.892h33.208v1.2h-30.9a1.752,1.752,0,0,0-1.923,1.5v3.394a1.751,1.751,0,0,0,1.923,1.5h30.9Z" transform="translate(-1517.921 -1427.608)"/><path class="p" d="M1772.508,1605.792H1739.3c-2.758,0-5-1.743-5-3.892v-1c0-2.15,2.239-3.892,5-3.892h33.208v1.2H1739.3c-1.909,0-3.462,1.206-3.462,2.694v1c0,1.485,1.55,2.694,3.462,2.694h33.208Z" transform="translate(-1550.335 -1427.608)"/><path class="j" d="M1783.755,1614.687h-32.671a3.194,3.194,0,0,1-3.194-3.194h0a3.194,3.194,0,0,1,3.194-3.193h32.671Z" transform="translate(-1562.483 -1437.7)"/><path class="l" d="M1764.82,1632.718q3.726-.106,7.453-.141c2.484-.029,4.969-.037,7.453-.04s4.969.011,7.453.039,4.969.071,7.453.142q-3.726.106-7.453.142c-2.484.029-4.969.036-7.453.04s-4.969-.012-7.453-.04S1767.3,1632.788,1764.82,1632.718Z" transform="translate(-1577.618 -1459.365)"/><path class="l" d="M1802.59,1651.368q3.727-.106,7.453-.141c2.484-.029,4.969-.037,7.453-.04s4.969.011,7.453.039,4.969.071,7.453.142q-3.727.106-7.453.142c-2.484.029-4.969.037-7.453.039s-4.969-.012-7.453-.04S1805.073,1651.439,1802.59,1651.368Z" transform="translate(-1611.381 -1476.037)"/><g class="m" transform="translate(185.713 170.596)"><path class="n" d="M1750.78,1610.045a3.117,3.117,0,0,1,2.888-1.775h32.738v2.008" transform="translate(-1750.78 -1608.27)"/></g><path class="a" d="M1756.939,1446.474h-34.747a3.465,3.465,0,0,1-3.462-3.462v-4.36a3.465,3.465,0,0,1,3.462-3.462h34.746v1.538h-34.746a1.925,1.925,0,0,0-1.923,1.923v4.36a1.925,1.925,0,0,0,1.923,1.923h34.746Z" transform="translate(-1536.417 -1282.953)"/><path class="j" d="M1768.207,1457.906h-33.944a1.923,1.923,0,0,1-1.923-1.923v-4.36a1.923,1.923,0,0,1,1.923-1.923h33.944Z" transform="translate(-1548.583 -1295.924)"/><g class="m" transform="translate(183.757 153.777)"><path class="n" d="M1732.34,1451.633a1.923,1.923,0,0,1,1.923-1.923h33.944v2.008" transform="translate(-1732.34 -1449.71)"/></g><path class="l" d="M1777.06,1481.575q3.726-.122,7.453-.163c2.484-.034,4.969-.042,7.453-.047s4.969.013,7.453.046,4.969.082,7.453.163q-3.726.122-7.453.163c-2.484.033-4.969.042-7.453.046s-4.969-.013-7.453-.047S1779.544,1481.656,1777.06,1481.575Z" transform="translate(-1588.559 -1324.229)"/><path class="l" d="M1751.68,1498.225q3.726-.122,7.453-.163c2.484-.034,4.969-.042,7.453-.047s4.969.013,7.453.046,4.969.082,7.453.163q-3.726.122-7.453.163c-2.484.033-4.969.042-7.453.046s-4.969-.013-7.453-.047S1754.164,1498.306,1751.68,1498.225Z" transform="translate(-1565.872 -1339.113)"/><rect class="k" width="42.054" height="5.93" transform="translate(181.144 163.521)"/><rect class="c" width="1.587" height="4.103" transform="translate(217.813 164.434)"/><rect class="c" width="1.587" height="4.103" transform="translate(209.929 164.434)"/><rect class="c" width="4.471" height="5.93" transform="translate(212.38 163.521)"/><path class="e" d="M1590.686,1561.464h0a.3.3,0,0,1-.355-.233l-.512-2.458a.3.3,0,0,1,.233-.355h0a.3.3,0,0,1,.355.233l.512,2.458A.3.3,0,0,1,1590.686,1561.464Z" transform="translate(-1421.173 -1393.104)"/><path class="e" d="M1548.982,1378.485h0a.834.834,0,0,1-.983-.644l-.614-2.943a.834.834,0,0,1,.644-.983h0a.834.834,0,0,1,.983.644l.614,2.942A.834.834,0,0,1,1548.982,1378.485Z" transform="translate(-1383.232 -1228.162)"/><path class="e" d="M1581.652,1535.155h0a.834.834,0,0,1-.983-.644l-.614-2.943a.834.834,0,0,1,.644-.983h0a.834.834,0,0,1,.983.644l.614,2.942A.834.834,0,0,1,1581.652,1535.155Z" transform="translate(-1412.436 -1368.214)"/><path class="s" d="M1545.58,1393.649l-1.835.383a.849.849,0,0,0-.658,1l1.559,7.478,1.944,7.441a.849.849,0,0,0,.995.616l1.085-.226a.849.849,0,0,0,.665-.962l-1.192-7.6-1.559-7.478a.849.849,0,0,0-1-.659Z" transform="translate(-1379.389 -1245.802)"/><path class="e" d="M1559.691,1467.422l-2.874.6a.5.5,0,0,1-.586-.384h0a.5.5,0,0,1,.384-.586l2.874-.6a.5.5,0,0,1,.586.384h0A.5.5,0,0,1,1559.691,1467.422Z" transform="translate(-1391.147 -1310.89)"/><path class="e" d="M1584.7,1397.606h0a.39.39,0,0,1-.46-.3l-1.473-7.062a.39.39,0,0,1,.3-.46h0a.39.39,0,0,1,.46.3l1.473,7.063a.39.39,0,0,1-.3.46Z" transform="translate(-1414.864 -1242.355)"/><rect class="r" width="0.814" height="2.121" transform="translate(167.187 148.519) rotate(-11.78)"/><rect class="q" width="3.771" height="17.922" transform="translate(170.154 143.18) rotate(2.94)"/><rect class="t" width="2.054" height="17.922" transform="translate(171.009 143.228) rotate(2.94)"/><path class="s" d="M1596.535,1383.481l2.221-5.905-3.826-.2Z" transform="translate(-1425.749 -1216.309)"/><path class="u" d="M1597.693,1380.4l1.063-2.825-3.826-.2.768,2.919Z" transform="translate(-1425.749 -1216.309)"/><rect class="s" width="3.771" height="1.867" transform="translate(170.249 141.317) rotate(2.94)"/><path class="c" d="M.354,0H3.416a.355.355,0,0,1,.355.355V1.867H0V.355A.355.355,0,0,1,.354,0Z" transform="translate(170.34 139.53) rotate(2.94)"/><rect class="q" width="3.771" height="17.922" transform="translate(173.564 165.81) rotate(-155.22)"/><rect class="t" width="2.054" height="17.922" transform="translate(172.783 165.451) rotate(-155.22)"/><path class="s" d="M1678.909,1209.92l-4.259,4.655,3.478,1.606Z" transform="translate(-1497.013 -1066.612)"/><path class="u" d="M1676.688,1232.81l-2.038,2.227,3.478,1.606.374-3Z" transform="translate(-1497.013 -1087.074)"/><rect class="v" width="3.771" height="1.867" transform="translate(172.784 167.505) rotate(-155.22)"/><path class="w" d="M.211,0H3.559a.212.212,0,0,1,.212.212V1.867H0V.212A.212.212,0,0,1,.211,0Z" transform="translate(172.033 169.131) rotate(-155.22)"/><rect class="o" width="11.409" height="18.303" transform="translate(176.774 178.217) rotate(180)"/><rect class="x" width="5.705" height="18.303" transform="translate(171.069 178.217) rotate(180)"/><path class="a" d="M453.534,887.8a3.73,3.73,0,0,0,3.419-1.436c1.731-2.479,4.373-4.7,7.336-2.184,1.709,1.454.424,4.445,1.895,5.884,1.3,1.273,2.955,1.061,3.62,3.174.979,3.107-2.106,5.829-3.1,8.515-.831,2.254,1.037,3.113,1.878,4.87a4.425,4.425,0,0,1-.39,4.1c-1.244,2.283-4,4.121-3.363,7.077.53,2.467,1.029,4.667-1.148,6.536-1.492,1.281-4.261,2.45-4.05,4.822a25.144,25.144,0,0,0,.815,2.382,4,4,0,0,1-1.582,3.483,33.635,33.635,0,0,0-5.89,6.548c-.718,1.1-3.591,3.583-2.44,5.092-2.088-2.732-4.293-5.383-6.189-8.256-1.559-2.363-3.911-5.819-2.31-8.73.5-.9,1.423-1.579,1.677-2.582.458-1.8-1.318-3.486-1.979-5.024a6.46,6.46,0,0,1,1.551-7.035,5.409,5.409,0,0,0,1.93-3.012c.139-1.323-.691-2.556-1.067-3.776a18.824,18.824,0,0,1-.689-3.489,7.262,7.262,0,0,1,.07-2.476c.369-1.534,1.75-2.388,2.774-3.476,2.44-2.591,1.155-5.639,2.219-8.651C449.474,887.448,451.549,887.811,453.534,887.8Z" transform="translate(-394.46 -789.399)"/><g class="y" transform="translate(46.807 93.671)"><path class="z" d="M523.107,932.754a114.5,114.5,0,0,1,1.84-31.012A157.905,157.905,0,0,1,532.8,873.01a88.421,88.421,0,0,1,4.081-8.94" transform="translate(-514.099 -866.085)"/><path class="z" d="M588.751,995.07a62.537,62.537,0,0,0-14.431,7.319,13.16,13.16,0,0,0-2.709,2.006" transform="translate(-557.784 -983.19)"/><path class="z" d="M548.81,1134.923a42.725,42.725,0,0,1,16.2-6.253" transform="translate(-537.403 -1102.618)"/><path class="z" d="M530.56,1245.97a36.522,36.522,0,0,1,16-8.03" transform="translate(-521.088 -1200.297)"/><path class="z" d="M540.254,945.794a45.414,45.414,0,0,0-4-15.894" transform="translate(-526.175 -924.933)"/><path class="z" d="M467.159,1073.479a40.1,40.1,0,0,0-9.759-13.039" transform="translate(-455.689 -1041.625)"/><path class="z" d="M463.793,1219.246a15.028,15.028,0,0,0-1.656-4.367,26.823,26.823,0,0,0-3.288-4.349q-1.3-1.474-2.639-2.91" transform="translate(-454.625 -1173.193)"/></g><path class="b" d="M314.581,1085.888a2.753,2.753,0,0,1-2.678-.568c-1.6-1.558-3.819-2.807-5.622-.569-1.038,1.291.308,3.283-.56,4.53-.767,1.1-2,1.18-2.186,2.8-.28,2.389,2.334,3.936,3.424,5.748.914,1.52-.318,2.4-.687,3.792a3.278,3.278,0,0,0,.849,2.919c1.218,1.485,3.473,2.44,3.419,4.667-.046,1.864-.1,3.527,1.737,4.583,1.26.723,3.43,1.187,3.607,2.937.062.62-.26,1.219-.261,1.841a2.96,2.96,0,0,0,1.629,2.308,24.845,24.845,0,0,1,5.18,3.934c.673.7,3.1,2.1,2.476,3.352,1.136-2.271,2.369-4.5,3.347-6.846.8-1.93,2.031-4.763.468-6.652-.486-.588-1.252-.949-1.574-1.64-.582-1.249.474-2.71.743-3.918a4.769,4.769,0,0,0-2.1-4.888,4.019,4.019,0,0,1-1.816-1.918c-.283-.94.147-1.95.251-2.886a13.9,13.9,0,0,0,.017-2.626,5.342,5.342,0,0,0-.394-1.786c-.48-1.061-1.6-1.485-2.493-2.137-2.121-1.543-1.619-3.931-2.807-5.969C317.478,1085.069,316.022,1085.622,314.581,1085.888Z" transform="translate(-271.318 -968.6)"/><g class="aa" transform="translate(32.195 114.935)"><path class="ab" d="M346.661,1121.2a84.633,84.633,0,0,0-5.627-22.241,116.622,116.622,0,0,0-9.676-19.754,65.277,65.277,0,0,0-4.2-5.92" transform="translate(-324.652 -1074.377)"/><path class="ab" d="M289.3,1179a46.178,46.178,0,0,1,11.482,3.31,9.675,9.675,0,0,1,2.242,1.08" transform="translate(-290.808 -1168.874)"/><path class="ab" d="M343.4,1273.751a31.55,31.55,0,0,0-12.615-2.293" transform="translate(-327.888 -1251.516)"/><path class="ab" d="M373.235,1351.606A26.971,26.971,0,0,0,360.52,1348" transform="translate(-354.473 -1319.947)"/><path class="ab" d="M414.366,1116.554a33.537,33.537,0,0,1,.7-12.084" transform="translate(-402.38 -1102.249)"/><path class="ab" d="M448.69,1199.068a29.611,29.611,0,0,1,5.273-10.808" transform="translate(-433.29 -1177.151)"/><path class="ab" d="M483,1304.387a11.1,11.1,0,0,1,.6-3.394,19.889,19.889,0,0,1,1.78-3.607q.743-1.25,1.512-2.476" transform="translate(-463.961 -1272.489)"/></g><path class="ac" d="M435.654,1358.99h-19.1l3.351,19.119h12.4Z" transform="translate(-372.365 -1199.87)"/><rect class="ac" width="23.783" height="5.366" transform="translate(41.846 153.754)"/><path class="h" d="M416.994,1361.525H435.21l.444-2.535h-19.1Z" transform="translate(-372.365 -1199.87)"/><path class="i" d="M2417.264,620.9h-6.17a4.784,4.784,0,0,0-4.773,4.773h0a4.774,4.774,0,0,0,2.067,3.925v3.352l3.434-2.511h5.438a4.784,4.784,0,0,0,4.773-4.773h0A4.784,4.784,0,0,0,2417.264,620.9Z" transform="translate(-2151.071 -555.038)"/><circle class="j" cx="0.723" cy="0.723" r="0.723" transform="translate(258.929 69.908)"/><circle class="j" cx="0.723" cy="0.723" r="0.723" transform="translate(262.385 69.908)"/><circle class="j" cx="0.723" cy="0.723" r="0.723" transform="translate(265.841 69.908)"/><path class="i" d="M1173.929,173.765c-.955-1.628-3.353-2.445-5.674.267-2.321-2.712-4.722-1.9-5.674-.267-2.344,4.011,5.674,8.731,5.674,8.731S1176.273,177.777,1173.929,173.765Z" transform="translate(-1038.877 -153.991)"/><rect class="i" width="14.221" height="9.488" rx="4.744" transform="translate(62.832 18.163)"/><path class="ad" d="M594.5,174.082l6.227,6.036a.955.955,0,0,0,1.309,0l6.227-6.038" transform="translate(-531.439 -155.615)"/><line class="ad" y1="3.925" x2="5.109" transform="translate(63.061 23.421)"/><line class="ad" x1="5.109" y1="3.925" transform="translate(71.715 23.421)"/><rect class="i" width="16.428" height="11.41" rx="5.705" transform="translate(17.57 51.674)"/><path class="i" d="M218.8,454.874l2.88-3.884h-5.76Z" transform="translate(-193.016 -388.185)"/><path class="j" d="M201.642,518.4c-.467-.8-1.644-1.2-2.781.132-1.138-1.33-2.316-.929-2.781-.132-1.152,1.967,2.781,4.285,2.781,4.285S202.792,520.37,201.642,518.4Z" transform="translate(-175.091 -462.756)"/><path class="j" d="M269.766,526.467h-.711v-1.945l.007-.318.012-.35q-.177.177-.246.232l-.386.311-.343-.424,1.083-.862h.584Z" transform="translate(-239.661 -467.621)"/><rect class="i" width="16.428" height="11.41" rx="5.705" transform="translate(182.995 17.416)"/><path class="i" d="M1778.32,131.916l2.881-3.886h-5.761Z" transform="translate(-1587.111 -99.483)"/><path class="j" d="M1829.3,203.507h-.711v-1.945l.007-.318.012-.35q-.177.177-.246.232l-.386.311-.343-.424,1.083-.862h.585Z" transform="translate(-1633.765 -178.919)"/><path class="j" d="M1758.807,199h-2.334a1.8,1.8,0,0,0-1.8,1.8h0a1.8,1.8,0,0,0,.782,1.485v1.273l1.3-.955h2.055a1.8,1.8,0,0,0,1.8-1.8h0A1.8,1.8,0,0,0,1758.807,199Z" transform="translate(-1568.545 -177.891)"/><path class="ae" d="M1032.08,1173.33h22.064a3.918,3.918,0,0,1,3.918,3.918v30.832a3.918,3.918,0,0,1-3.918,3.918H1032.08Z" transform="translate(-922.603 -1033.904)"/><rect class="i" width="25.986" height="11.995" transform="translate(109.477 148.189)"/><rect class="ac" width="1.605" height="38.617" transform="translate(127.773 139.426)"/><path class="q" d="M1113.41,1237.78h19.981a.3.3,0,0,1,.3.3v31.18a.3.3,0,0,1-.3.3H1113.41Z" transform="translate(-995.306 -1091.517)"/><path class="p" d="M1085.82,1237.78h2.658v31.781h-2.658a.3.3,0,0,1-.3-.3V1238.08A.3.3,0,0,1,1085.82,1237.78Z" transform="translate(-970.374 -1091.517)"/><rect class="j" width="3.238" height="1.185" rx="0.592" transform="translate(114.044 148.549)"/><rect class="j" width="3.238" height="1.185" rx="0.592" transform="translate(114.044 151.359)"/><rect class="j" width="3.238" height="1.185" rx="0.592" transform="translate(114.044 154.168)"/><rect class="j" width="3.238" height="1.185" rx="0.592" transform="translate(114.044 156.976)"/><rect class="j" width="3.238" height="1.185" rx="0.592" transform="translate(114.044 159.785)"/><rect class="j" width="3.238" height="1.185" rx="0.592" transform="translate(114.044 162.595)"/><rect class="j" width="3.238" height="1.185" rx="0.592" transform="translate(114.044 165.404)"/><rect class="j" width="3.238" height="1.185" rx="0.592" transform="translate(114.044 168.213)"/><path class="j" d="M1077.776,1613.456h-2.053a.593.593,0,0,1-.593-.593h0a.593.593,0,0,1,.593-.593h2.053a.593.593,0,0,1,.593.593h0A.593.593,0,0,1,1077.776,1613.456Z" transform="translate(-961.086 -1441.249)"/><rect class="j" width="3.238" height="1.185" rx="0.592" transform="translate(114.044 173.832)"/><rect class="p" width="13.399" height="3.57" transform="translate(121.374 150.705)"/><rect class="o" width="2.876" height="2.876" transform="translate(147.841 172.429) rotate(180)"/><path class="o" d="M1315.63,1631.154h13.7a5.6,5.6,0,0,0-5.6-5.6h-2.491A5.6,5.6,0,0,0,1315.63,1631.154Z" transform="translate(-1176.075 -1453.121)"/><path class="h" d="M1322.529,1606.92h-6.849a5.6,5.6,0,0,1,5.6-5.6h-.193v-2.876h1.437" transform="translate(-1176.12 -1428.886)"/><path class="k" d="M1310.516,1310.847l1.358,2.97,3.283,7.187,3.953,8.656,3.42,7.488,1.134,2.483c.177.388.33.805.538,1.177a.448.448,0,0,1,.023.051c.3.666,1.288.088.984-.576l-1.358-2.97-3.283-7.187-3.953-8.656-3.42-7.488-1.134-2.483c-.177-.388-.33-.805-.538-1.177a.434.434,0,0,1-.023-.051C1311.2,1309.6,1310.213,1310.183,1310.516,1310.847Z" transform="translate(-1171.453 -1171.021)"/><path class="o" d="M1241.4,1318.247c-6.059,2.8-10.438,9.03-10.107,15.827a14.85,14.85,0,0,0,3.615,8.974,16.055,16.055,0,0,0,8.26,4.986,17.5,17.5,0,0,0,11.411-1.105c.667-.3.089-1.285-.576-.984a15.864,15.864,0,0,1-17.563-2.923,13.668,13.668,0,0,1-3.933-8.034,14.629,14.629,0,0,1,1.71-8.592,16.7,16.7,0,0,1,7.757-7.161c.666-.308.087-1.29-.576-.984Z" transform="translate(-1100.667 -1178.365)"/><circle class="c" cx="13.548" cy="13.548" r="13.548" transform="translate(132.856 140.987)"/><g class="af" transform="translate(132.856 140.987)"><path class="b" d="M1343.63,1332.632a.44.44,0,0,1,0,.124c-.026.173-.222.255-.336.386a.613.613,0,0,0-.124.483,1.422,1.422,0,0,0,.176.479.365.365,0,0,1,.065.212c-.018.123-.155.188-.276.212-.384.093-1.415.4-1.05,1.024.17.289.579.268.911.308a1.815,1.815,0,0,1,1.546,1.586.367.367,0,0,1-.466.443,3.275,3.275,0,0,1-1.871-1.021.774.774,0,0,0-.183.943,3.736,3.736,0,0,1,.37.973,1.333,1.333,0,0,1-1.156,0c-.2-.1-.417-.244-.61-.143-.165.086-.2.3-.295.463-.292.485-1.014.335-1.568.45a2.927,2.927,0,0,0-1.115.606l-2.238,1.684a.718.718,0,0,0-.2.193.527.527,0,0,0,.178.636,3.375,3.375,0,0,0,.636.336c.849.441,1.036,1.3,1.485,2.057a11.369,11.369,0,0,0,1.623,2.083,18.764,18.764,0,0,1,1.889,2.35,3.737,3.737,0,0,1,.492.87,5.716,5.716,0,0,1,.016,2.2.609.609,0,0,0,.054.35.226.226,0,0,0,.307.092.351.351,0,0,0,.1-.153,3.746,3.746,0,0,1,.682-.99,1.147,1.147,0,0,0,.3-.781c.018-.144.1-.212.091-.375s-.129-.266-.081-.424c.04-.135.186-.212.256-.331.132-.231-.05-.524.007-.784a3.2,3.2,0,0,0,.2-.743,2.561,2.561,0,0,0-.1-.849,3.914,3.914,0,0,1-.251-.53,2.994,2.994,0,0,0-.042-.45,1.444,1.444,0,0,0-.2-.318,2.043,2.043,0,0,1-.147-1.414.69.69,0,0,1,.249-.53.606.606,0,0,0,.146-.084.37.37,0,0,0,.074-.19,1.12,1.12,0,0,1,.728-.808c.767-.254.137-1.209-.262-1.591a5.8,5.8,0,0,1-.742-.726.9.9,0,0,1-.116-.973.943.943,0,0,1,1.312-.1,9.288,9.288,0,0,1,1.01,1.07,1.167,1.167,0,0,0,1.33.332c.122-.072.232-.183.373-.19.19-.008.326.17.484.275.485.318,1.158-.068,1.712.112a5.506,5.506,0,0,1,.68.385.589.589,0,0,0,.718-.069c.063-.081.094-.192.184-.242a.705.705,0,0,1,.3-.028.566.566,0,0,0,.452-.563,2.344,2.344,0,0,0-.166-.768,3.7,3.7,0,0,1,.157-2.512,1.861,1.861,0,0,0,.2-.6,1.412,1.412,0,0,0-.4-.921,12.347,12.347,0,0,0-5.931-4.05c-.5-.156-1.663-.475-1.57.475A.168.168,0,0,0,1343.63,1332.632Z" transform="translate(-1326.391 -1331.623)"/><path class="b" d="M1252.443,1342.693l-.542.834a.824.824,0,0,0-.169.4c-.012.318.33.537.435.839.174.5-.378.983-.9,1.067-.364.058-.838.079-.949.432-.038.122-.017.257-.051.38a1.223,1.223,0,0,1-.3.424,1.379,1.379,0,0,0-.07,1.616c.152.221.366.391.513.614a.671.671,0,0,1,.058.749c-.291.388-1.111.212-1.205.683-.04.2.08.465-.089.579a1.383,1.383,0,0,1-.219.075c-.169.078-.2.307-.162.488a1.317,1.317,0,0,1,.071.546c-.229.1-.53-.113-.728.044a.486.486,0,0,0-.123.19,10.8,10.8,0,0,1-1.446,2.359.185.185,0,0,1-.127.087c-.068,0-.112-.069-.14-.129a5.778,5.778,0,0,1-.373-2.35,7.491,7.491,0,0,1,.877-4.313,46.722,46.722,0,0,1,2.783-5.458,5.35,5.35,0,0,1,1.239-1.492c.383-.291,1.591-.862,2.007-.327C1253.1,1341.4,1252.656,1342.364,1252.443,1342.693Z" transform="translate(-1246.609 -1339.571)"/></g><g class="ag"><path class="ah" d="M2117.285,661.581c5.339,3.524,15.73.791,12.785-6.2a20.327,20.327,0,0,1-1.03-2.553,15.558,15.558,0,0,1-.318-4.474c.048-1.744.062-3.492.157-5.233a23.6,23.6,0,0,0-5.607-.472c-1.715.063-3.428-.1-5.143-.006a.663.663,0,0,0-.385.1.456.456,0,0,0-.127.327c-.23,2.354,0,4.738-.185,7.1a11.326,11.326,0,0,1-.884,4.053c-.927,1.883-2.306,3.632-.977,5.676A5.858,5.858,0,0,0,2117.285,661.581Z" transform="translate(-1890.672 -574.451)"/><path class="ai" d="M2147.268,652.343a16.959,16.959,0,0,1-.19-4.177c.048-1.744.062-3.492.157-5.233a23.6,23.6,0,0,0-5.607-.472c-1.715.063-3.428-.1-5.143-.006a.662.662,0,0,0-.385.1.455.455,0,0,0-.127.327c-.23,2.354,0,4.738-.185,7.1a15.408,15.408,0,0,1-.289,2.015c.27.212.543.408.825.592a9.759,9.759,0,0,0,7.5,1.208A11.663,11.663,0,0,0,2147.268,652.343Z" transform="translate(-1908.978 -574.281)"/><path class="s" d="M2073.813,400.91a25.18,25.18,0,0,1-5.728,3.491,8.984,8.984,0,0,1-3.061.884c-1.916.115-3.662-1.16-4.994-2.4a28.491,28.491,0,0,1-3.527-3.819,23.18,23.18,0,0,1-4.016-8.745c-.772-3.463-.651-7.122-.718-10.649a6.1,6.1,0,0,1,.77-3.8c.663-.9,1.775-1.379,2.458-2.259.347-.448.567-.98.9-1.438a5.776,5.776,0,0,1,4.509-1.946,33.618,33.618,0,0,0,5.07-.188c1.069-.212,2.079-.663,3.137-.926a7.487,7.487,0,0,1,6.065.935c1.631,1.149,2.59,3.017,4,4.432,1.294,1.3,3.046,2.334,3.577,4.1a8.841,8.841,0,0,1-.106,3.607c-.178,1.479-.433,2.949-.752,4.4-.412,1.878-.955,3.713-1.508,5.555A18.144,18.144,0,0,1,2073.813,400.91Z" transform="translate(-1834.122 -329.734)"/><path class="ah" d="M2104.669,466.35a20.444,20.444,0,0,0-.38-6.17,10.3,10.3,0,0,0-5.94-7.125c-3.218-1.379-6.855-.766-10.223-.451a5.768,5.768,0,0,0-2.828.771,4.757,4.757,0,0,0-1.5,2.112c-1.74,4.092-1.71,8.849-1.314,13.189.357,3.925,1.637,8.071,4.311,11.05a11.306,11.306,0,0,0,.829.835,7.522,7.522,0,0,0,6.279,1.8C2100.614,481.151,2104.124,473.313,2104.669,466.35Z" transform="translate(-1861.386 -404.227)"/><path class="ai" d="M2101.913,461.739c-.049-1.819-.273-4.137-1.346-5.543-.955-1.255-3.316-1.94-4.793-2.282-4.422-1.024-8.374,1.067-12.769.943a2.992,2.992,0,0,0-2.009.382,2.773,2.773,0,0,0-.742,1.979c-.3,3.182-.334,6.4-.67,9.573a.53.53,0,0,0,.037.333.363.363,0,0,0,.521.038,1,1,0,0,0,.28-.511,27.276,27.276,0,0,0,1.016-4.879,6.77,6.77,0,0,1,.342-1.7,2.025,2.025,0,0,1,1.167-1.219,2.947,2.947,0,0,1,1.2-.051l13.79,1.3a1.526,1.526,0,0,1,.734.2,1.3,1.3,0,0,1,.424.611,27.208,27.208,0,0,1,1.415,6.739l.565,4.546c-.059-.463.31-1.069.355-1.541a10.063,10.063,0,0,0-.052-1.085c-.01-1.192.263-2.44.371-3.626a35.655,35.655,0,0,0,.178-3.607C2101.921,462.143,2101.918,461.944,2101.913,461.739Z" transform="translate(-1858.981 -405.512)"/><path class="s" d="M2098.558,450.46a20.334,20.334,0,0,0,.672,8.306c.09.268.849-.936.872-1.013.257-.721.461-1.467.651-2.208a32.159,32.159,0,0,0,.4-14.126,5.656,5.656,0,0,0-.968-2.5,4.326,4.326,0,0,0-2.334-1.365,15.477,15.477,0,0,0-2.73-.318c-5-.354-10.115-1.591-14.928-.2a2.145,2.145,0,0,0-.71.31,2,2,0,0,0-.508.645,13.284,13.284,0,0,0-1.293,5.41c-.158,1.786-.642,3.593-.679,5.364-.033,1.575-.167,3.125,1.3,4.123l.182-2.8c.083-1.273.3-2.448.274-3.719.128-1.357.181-2.728.318-4.1a4.083,4.083,0,0,1,.187-1.018,1.378,1.378,0,0,1,.645-.782,2.071,2.071,0,0,1,1.2-.068,16.244,16.244,0,0,1,4.117,1.466,16.991,16.991,0,0,0,9.706.545,7.629,7.629,0,0,1,2.218-.224,2.253,2.253,0,0,1,1.823,1.125,3.284,3.284,0,0,1,.153,1.732C2098.963,446.835,2098.711,448.648,2098.558,450.46Z" transform="translate(-1856.672 -390.095)"/><path class="ah" d="M2271.156,585.345c3.039-1.344,3.595,2.758,2.926,4.715a6.406,6.406,0,0,1-1.241,2.228c-.768.858-2.874,2.212-3.925,1.113a2.552,2.552,0,0,1-.424-1.966C2268.6,589.582,2269.1,586.255,2271.156,585.345Z" transform="translate(-2027.845 -523.017)"/><path class="ah" d="M2055.942,563.936c-2.735-1.888-4.047,2.033-3.756,4.084a6.411,6.411,0,0,0,.8,2.419c.594.986,2.409,2.71,3.651,1.828a2.556,2.556,0,0,0,.785-1.851C2057.658,568.578,2057.795,565.216,2055.942,563.936Z" transform="translate(-1834.466 -503.67)"/><path class="aj" d="M2056.344,369.478a4.663,4.663,0,0,1,.576-2.914,8.489,8.489,0,0,0,1.209-3.464,6.452,6.452,0,0,1,1.061-3.355,4.04,4.04,0,0,1,2.645-1.337,11.964,11.964,0,0,1,3.025.119,29.026,29.026,0,0,1,3.084.849,3.8,3.8,0,0,0,2.1-.046c1.158-.405,1.545-1.379,2.37-2.148a3.9,3.9,0,0,1,3-.666,5.765,5.765,0,0,1,3.591,2.05c.979,1.173,1.532,2.681,2.627,3.747,1.324,1.287,3.278,1.642,4.692,2.816,2.379,1.976.816,5.343-.031,7.648q-1.245,3.394-2.553,6.756" transform="translate(-1838.208 -318.657)"/><path class="ak" d="M2130.557,404.3a3.477,3.477,0,0,0-.492-1.308,4.38,4.38,0,0,0-.917-1.041,5.426,5.426,0,0,0-1.167-.743,6.536,6.536,0,0,0-1.306-.458,18.7,18.7,0,0,0-2.777-.4c-.47-.042-.942-.088-1.416-.145s-.948-.135-1.416-.229c-.935-.194-1.85-.441-2.764-.668a20.7,20.7,0,0,0-2.758-.545,12.247,12.247,0,0,0-1.4-.076,8.806,8.806,0,0,0-1.392.123,6,6,0,0,0-2.577,1.061,5.662,5.662,0,0,1,2.535-1.264,8.909,8.909,0,0,1,1.424-.2,11.462,11.462,0,0,1,1.436.024,48.024,48.024,0,0,1,5.573,1.129c.459.1.918.174,1.379.233s.935.106,1.4.157a16.77,16.77,0,0,1,2.822.482,5.94,5.94,0,0,1,2.523,1.369,4.414,4.414,0,0,1,.88,1.138A3.336,3.336,0,0,1,2130.557,404.3Z" transform="translate(-1886.344 -356.137)"/><path class="ae" d="M2195.689,1388.328c.666,11.07.573,20.01,1.379,33.88.113,1.936.262,3.87.4,5.8.083,1.133.59,3.664-.28,4.575a2.375,2.375,0,0,1-.882.507,24.826,24.826,0,0,1-6.49,1.723,17.055,17.055,0,0,1-7.187-1.052.234.234,0,0,1-.2-.243c-.2-1.379-.239-2.709-.318-4.09q-.205-3.8-.54-7.6c-.442-5.057-1.042-10.1-1.739-15.126-1.4-10.077-3.182-20.095-4.911-30.12-1.346-7.818-2.658-15.643-3.712-23.505-1-7.4-3.747-14.3-3.819-21.869-.029-3.05.355-6.364,2.473-8.562,2.394-2.482,6.214-2.758,9.662-2.825,9.1-.172,11.721,8.124,13.2,15.265,1.762,8.536,1.529,18.115,1.652,26.83C2194.51,1370.732,2195.16,1379.522,2195.689,1388.328Z" transform="translate(-1937.491 -1179.825)"/><path class="ae" d="M1995.608,1430.874c.212,3.309.465,6.6.679,9.923a.877.877,0,0,0,.12.467.8.8,0,0,0,.335.236c1.981.9,15.214,1.261,14.893-2.218-.575-6.2-.854-12.421-.943-18.645-.212-14.5.619-28.991,1.146-43.479q.606-16.646.6-33.307c-.006-7.174-.784-16.1-9.534-17.322-5.189-.727-11.822,4.513-13.1,9.6-2.539,10.1-1.707,16.317-.743,26.589,1,10.573,2.758,23.79,3.5,34.387C1993.352,1408.163,1994.607,1417.015,1995.608,1430.874Z" transform="translate(-1777.233 -1185.757)"/><path class="al" d="M1795.987,785.208c2.854-3.407,6.13-6.747,10.628-7.743,2.624-.579,7.28-.417,7.708,2.97.239,1.893-1.379,3.47-2.46,5.078a47.557,47.557,0,0,0-2.8,5.834c-1.878,3.854-4.754,7.017-7.177,10.544-2.694,3.925-4.655,8.372-7.439,12.2-2.146,2.946-5.019,6.082-8.453,7.578-2.844,1.238-6.451.99-7.913-2.015-1.3-2.665-.868-6.163.1-8.9a17.938,17.938,0,0,1,3.254-5.07,74.157,74.157,0,0,0,4.32-6.342A142.782,142.782,0,0,1,1795.987,785.208Z" transform="translate(-1588.745 -694.765)"/><path class="am" d="M2350.806,883.2c.855,1.379,1.689,2.764,2.514,4.157a100.674,100.674,0,0,1,5.3,9.387,11.912,11.912,0,0,1,1.243,3.808,6.075,6.075,0,0,1-2.778,5.576,3.48,3.48,0,0,1-4.2-.16c-1.227-.855-1.742-2.043-2.682-3.118-1.241-1.419-2.417-2.889-3.563-4.385-2.292-2.993-4.476-6.075-6.935-8.938-2.744-3.194-4.575-7.264-6.3-11.064-1.143-2.514-2.679-6.131-.849-8.714a4.395,4.395,0,0,1,3.258-1.824,6.826,6.826,0,0,1,2.291.325,7.993,7.993,0,0,1,1.843.742,12.589,12.589,0,0,1,3.281,3.513c1.167,1.491,2.34,2.965,3.45,4.5C2348.135,879.015,2349.5,881.09,2350.806,883.2Z" transform="translate(-2084.375 -775.853)"/><path class="al" d="M2259.58,776.669a23.965,23.965,0,0,0-9.03-6.336c-2.658-.98-6.716-2.172-8.479.982a10.144,10.144,0,0,0-.858,6.392c.688,3.953,3.14,7.388,5.36,10.6,2.033,2.938,3.739,6.1,5.82,9.006,1.86,2.6,4.137,4.766,6.167,7.222a73.822,73.822,0,0,1,5.873,8.38,20.743,20.743,0,0,0,4.018,5.269,7.236,7.236,0,0,0,3.774,1.689c1.688.183,2.575-.5,3.868-1.492a8.376,8.376,0,0,0,2.449-2.538c1.13-2.111.4-4.691-.437-6.914a96.971,96.971,0,0,0-9.07-18.147c-1.577-2.469-2.709-5.046-4.377-7.475A55.347,55.347,0,0,0,2259.58,776.669Z" transform="translate(-2003.327 -687.673)"/><path class="e" d="M2031.113,839.38s-18.11.7-25.046.8c-6.485.1-12.888.439-19.349-.43a.738.738,0,0,1-.487-.2.7.7,0,0,1-.112-.478c-.015-7.567-.291-15.056-.3-22.628q-.016-15.89.293-31.778c.148-7.629-.573-21.554,9.964-22.546,3.587-.337,7.2-.731,10.809-.78v-.008h.772v.008c3.614.036,7.223.417,10.811.742,4.362.395,7.227,3.467,8.542,7.472a25.237,25.237,0,0,1,1.1,6.163,73.164,73.164,0,0,1,.51,8.182l-1.061,26.1a28.651,28.651,0,0,0,.031,4.137C2028.286,820.855,2031.113,839.38,2031.113,839.38Z" transform="translate(-1775.169 -680.581)"/><g class="an" transform="translate(210.644 80.759)"><path class="ao" d="M2095.769,748.358a3.623,3.623,0,0,0-.332.865c-.761,2.912.832,6.342,2.635,8.577a6.728,6.728,0,0,0,6.333,2.758,11.353,11.353,0,0,0,9.47-11.764,1.238,1.238,0,0,0-.186-.636c-.318-.424-1.954-.128-2.467-.128h-13.51c-.474,0-1.083-.306-1.54-.091A1,1,0,0,0,2095.769,748.358Z" transform="translate(-2083.634 -749.291)"/><path class="am" d="M2100.75,600.6l7.088,7.921,11.317-7.921Z" transform="translate(-2088.558 -602.684)"/></g><path class="p" d="M2183.28,1018.912l-2.334.265s-29.383-28.882-29.79-29.44c-.442-.6.541-2.952,1.639-3.111l27.013-3.916Z" transform="translate(-1922.876 -878.47)"/><path class="j" d="M2191.872,1025.844l-1.824,1.623-2.3-.656s-26.173-30.443-26.364-30.573a1.731,1.731,0,0,1,1.254-2.084l25.605-3.844Z" transform="translate(-1932.047 -885.263)"/><path class="q" d="M2181.448,908.541l-24.416,3.888-5.832-35.023,26.2-3.506Z" transform="translate(-1923.013 -766.236)"/><path class="p" d="M2234.939,957.169l-13.018,1.821-.872-3.741,13.385-2.1Z" transform="translate(-1985.453 -837.079)"/><path class="am" d="M2277.715,1158.091c4.137-1.514,8.263-3.069,12.446-4.436,2.644-.806,5.818-1.676,8.38-.563a3.362,3.362,0,0,1,1.978,3.387c-.088,2.493-2.465,4.349-4.387,5.55a27.89,27.89,0,0,1-3.79,1.952,19.686,19.686,0,0,1-3.848,1.379c-7.079,1.37-9.709,2.171-16.844,2.5a50.191,50.191,0,0,1-5.822-.53c-.955-.494-.874-1.885-.589-2.827a4.247,4.247,0,0,1,1.837-2.51,23.5,23.5,0,0,1,4.312-1.628q2.519-.894,5.034-1.8Z" transform="translate(-2024.784 -1030.306)"/><path class="am" d="M2183.441,1199.235c-1.642.22-3.438.021-4.953.823a10.755,10.755,0,0,1-1.892.983,32.483,32.483,0,0,1-5.211,1.011q-1.333.159-2.672.286a2.843,2.843,0,0,1-1.927-.461,1.82,1.82,0,0,1-.911-1.157.5.5,0,0,0-.475-.506,1.6,1.6,0,0,1-.891-1.94.376.376,0,0,0,.035-.222c-.024-.087-.112-.138-.187-.189a1.436,1.436,0,0,1-.168-2.015,1.079,1.079,0,0,0,.168-.245,1.066,1.066,0,0,0-.042-.606,1.384,1.384,0,0,1,.345-1.242,2.616,2.616,0,0,1,1.517-.454,21.289,21.289,0,0,0,4.1-.808c.269-.093,1.253-.348,1.114-.717a1.245,1.245,0,0,0-.586-.626,13.361,13.361,0,0,0-2.021-.5,8.391,8.391,0,0,1-2.1-1.088.726.726,0,0,1-.259-.267.55.55,0,0,1,.092-.53,1.281,1.281,0,0,1,.955-.478,3.787,3.787,0,0,1,1.086.125l2.691.578a11.039,11.039,0,0,1,1.929.542,7.243,7.243,0,0,1,1.533,1.019c1.073.8,2.111,1.972,3.475,2.266,1.56.336,3.666-.212,5.177-.618" transform="translate(-1934.327 -1062.237)"/><path class="j" d="M2092.019,611.361l-3.308,4.157-6.072-9.552,3.686-2.246Z" transform="translate(-1861.725 -524.715)"/><path class="ah" d="M1468.089,938.009a1.607,1.607,0,0,0-.115.628,1.027,1.027,0,0,0,.6,1.023,1.51,1.51,0,0,0,.713,2.367,1.642,1.642,0,0,0-.233,1.8c.469.906,1.844,1.042,2.746,1.211a18.484,18.484,0,0,0,3.686.332c1.662-.026,3.034-.681,4.6.253a22.357,22.357,0,0,1,2.342,1.536,11.88,11.88,0,0,1,1.462-3.862,1.619,1.619,0,0,0,.351-1.273,1.486,1.486,0,0,0-.4-.544c-1.909-1.916-3.415-4.064-6.168-4.578-.8-.148-1.6-.467-2.387-.684q-1.669-.461-3.358-.837a5.5,5.5,0,0,0-1.664-.189,1.965,1.965,0,0,0-1.449.743,1.215,1.215,0,0,0,.081,1.539C1468.461,937.618,1468.217,937.739,1468.089,938.009Z" transform="translate(-1312.26 -835.983)"/><path class="ai" d="M1524.7,949.02a8.805,8.805,0,0,1-2.779-3.224c-.06-.12-.131-.252-.26-.29a.468.468,0,0,0-.405.158c-.23-.052-.955,1.048-1.124,1.227a2.022,2.022,0,0,1,.9,1.3,1.173,1.173,0,0,1-.736,1.3,2.15,2.15,0,0,1,.5,2.121c.636-.465,1.061-1.159,1.71-1.634A5.481,5.481,0,0,1,1524.7,949.02Z" transform="translate(-1358.883 -845.204)"/><path class="ae" d="M1395.651,562.7c1.573,0,16.392,49.464,16.392,50.676s-1.777,1.714-2.842,1.211C1407.217,613.654,1394.078,562.7,1395.651,562.7Z" transform="translate(-1247.492 -503.012)"/><path class="ah" d="M1512.666,876.137c-.486-.5-1.094-.86-1.574-1.362-1.485-1.551-1.428-4.011-.928-6.1.141-.589.53-1.315,1.121-1.182a1.063,1.063,0,0,1,.659.751c.391,1.1.275,2.361.829,3.394.763,1.41,2.5,2.364,3.561,3.58a15.052,15.052,0,0,1,2.463,4.084c.49,1.307-.718,1.332-1.75,1.042a5.363,5.363,0,0,1-2.845-1.951,23.658,23.658,0,0,0-1.456-2.179Z" transform="translate(-1349.69 -775.461)"/><path class="ah" d="M1480.874,945a5.316,5.316,0,0,0,2.816-.141,1.426,1.426,0,0,0,.51-.262c.347-.309.176-.717.01-1.077a1.567,1.567,0,0,0-.062-2.586,1.167,1.167,0,0,0,.591-2.062.947.947,0,0,0,.709-1.034,2.935,2.935,0,0,0-2.091-2.138,7.612,7.612,0,0,0-2.4-.392c-.547-.013-1.485-.08-1.866.4a1.53,1.53,0,0,0-.154,1.156l.716,5.389a3.5,3.5,0,0,1,.035.969,2,2,0,0,0-.013,1.1,1.273,1.273,0,0,0,.873.6Q1480.708,944.958,1480.874,945Z" transform="translate(-1322.021 -836.082)"/><path class="j" d="M2171.06,611.361l3.882,4.607,9.744-9.828L2181,603.72Z" transform="translate(-1940.766 -524.715)"/><path class="al" d="M2327.89,1163.922a64.209,64.209,0,0,1-11.011,2.652,39.01,39.01,0,0,1-6.543.754c-1.868.013-4.024.8-4.08-1.725q-.064-2.936-.031-5.873a1.366,1.366,0,0,1,.167-.787,1.389,1.389,0,0,1,.588-.413,43.1,43.1,0,0,1,4.986-1.629c6.562-2.14,13.078-5.08,20.006-5.773a6.44,6.44,0,0,1,3.223.264,3.988,3.988,0,0,1,2.13,4.39c-.566,3.375-3.563,5.472-6.429,6.87A31.56,31.56,0,0,1,2327.89,1163.922Z" transform="translate(-2061.584 -1028.951)"/><path class="al" d="M1580.718,988.618a60.043,60.043,0,0,1-10.587-8.413c-1.679-1.6-3.321-3.22-4.879-4.942-1.109-1.227-2.552-2.372-1.4-4.037l2.636-3.8a3.653,3.653,0,0,1,1.339-1.348c1.547-.723,3.274.88,4.447,1.676,3.288,2.228,6.569,4.386,9.977,6.419,1.662.992,3.321,1.992,4.933,3.066.781.52,1.55,1.054,2.3,1.614.546.406,1.9,1.121,2.182,1.741,2.213,1.909,5.427,5.567,3.5,8.62-1.7,2.693-5.461,2.864-8.235,2.152A24.5,24.5,0,0,1,1580.718,988.618Z" transform="translate(-1397.589 -863.44)"/></g><rect class="j" width="297" height="19.956" transform="translate(0 192.188)"/><rect class="ap" width="231.273" height="6.373" transform="translate(56.401 198.7)"/><rect class="k" width="50.736" height="6.373" transform="translate(6.669 198.88)"/><rect class="c" width="6.861" height="12.365" transform="translate(53.975 195.98)"/></g></g></svg>