<svg xmlns="http://www.w3.org/2000/svg" width="117.73" height="164.13" viewBox="0 0 117.73 164.13"><defs><style>.a{fill:#fff;}.b{fill:#ffde3f;}</style></defs><g transform="translate(-353.97 -4)"><g transform="translate(354 4)"><path class="a" d="M432.13,324.87a8.7,8.7,0,0,1-6.16-2.56l-24.59-24.59a4.55,4.55,0,0,0-3.23-1.34H378.52a12.78,12.78,0,0,1-12.76-12.77V235.07a12.78,12.78,0,0,1,12.76-12.76h84.26a12.78,12.78,0,0,1,12.76,12.76v63.8a4.07,4.07,0,0,1-.67,2.25l-.12.3a4.1,4.1,0,0,1-5.42,2.06l-28.46-12.8v25.46a8.74,8.74,0,0,1-8.73,8.73M378.52,230.5a4.58,4.58,0,0,0-4.57,4.57v48.54a4.58,4.58,0,0,0,4.57,4.57h19.64a12.68,12.68,0,0,1,9,3.74l24.59,24.59a.53.53,0,0,0,.9-.37V287l-29.48-13.26a6,6,0,0,1-2.57-10.6l7.45-5.81,22.6-17a6.63,6.63,0,0,1,10.2,5.59V281.7l26.48,11.91V235.07a4.58,4.58,0,0,0-4.57-4.57Zm30.17,36.73,24,10.78V249.07l-19.62,14.76Z" transform="translate(-362.94 -222.31)"/><path class="b" d="M462.77,230.53H378.52a4.58,4.58,0,0,0-4.57,4.57v48.54a4.58,4.58,0,0,0,4.57,4.57h19.64a12.68,12.68,0,0,1,9,3.74l24.59,24.59a.53.53,0,0,0,.9-.37V287l-29.48-13.26a6,6,0,0,1-2.57-10.6l7.45-5.81,22.6-17A6.63,6.63,0,0,1,440.86,246v35.76l26.48,11.91V235.1a4.58,4.58,0,0,0-4.57-4.57" transform="translate(-362.94 -222.31)"/><path class="a" d="M378.39,378a2,2,0,0,1-2.16,2h-9.14a1.7,1.7,0,0,1-1.83-1.67v-15.3a2.205,2.205,0,0,1,4.41,0v13h6.57a2,2,0,0,1,2.16,2" transform="translate(-362.94 -222.31)"/><path class="a" d="M392.79,374.42h-9.36c.49,1.48,2.16,2.44,4.19,2.44a6,6,0,0,0,3-.77,2.14,2.14,0,0,1,1.1-.33,1.75,1.75,0,0,1,1.75,1.78,2,2,0,0,1-1.2,1.75,10.87,10.87,0,0,1-4.82,1c-4.68,0-8-3.06-8-7.44a7.44,7.44,0,0,1,7.53-7.56c4.05,0,7.39,3.5,7.39,6.93,0,1.56-.77,2.19-1.59,2.19m-2.3-2.82a3.72,3.72,0,0,0-7.15,0Z" transform="translate(-362.94 -222.31)"/><path class="a" d="M410.75,367.28V379a.94.94,0,0,1-1,1.07H407.9a.94.94,0,0,1-1.07-1.07v-.19a5.4,5.4,0,0,1-3.83,1.53,7.5,7.5,0,0,1,0-15,5.85,5.85,0,0,1,3.91,1.37,2,2,0,0,1,3.83.6m-3.91,5.5a3.67,3.67,0,1,0-3.67,3.67,3.67,3.67,0,0,0,3.67-3.67" transform="translate(-362.94 -222.31)"/><path class="a" d="M421.24,369.14a3.66,3.66,0,0,0-3.61,3.75v6.38a.69.69,0,0,1-.77.77h-2.38a.69.69,0,0,1-.77-.77v-6.35a7.67,7.67,0,0,1,3.67-6.54,7.27,7.27,0,0,1,4.27-1.07,4.32,4.32,0,0,1,1.64.19,1.91,1.91,0,0,1,1.2,1.81,1.88,1.88,0,0,1-1.89,1.89c-.47,0-.85-.06-1.37-.06" transform="translate(-362.94 -222.31)"/><path class="a" d="M439.14,370.76v8.51a.69.69,0,0,1-.77.77H436a.69.69,0,0,1-.77-.77v-7.36a2.6,2.6,0,0,0-2.71-2.85,2.63,2.63,0,0,0-2.74,2.85v7.36a.69.69,0,0,1-.77.77h-2.38a.69.69,0,0,1-.77-.77v-12a1.95,1.95,0,0,1,3.89-.25,5.35,5.35,0,0,1,4.13-1.72c3.37,0,5.26,2.33,5.26,5.45" transform="translate(-362.94 -222.31)"/><path class="a" d="M442.16,361.56a2.26,2.26,0,1,1,.662,1.608,2.26,2.26,0,0,1-.662-1.608M446.4,379a.93.93,0,0,1-1,1.07h-1.81a.94.94,0,0,1-1.07-1.07V367.28a2,2,0,1,1,3.91,0Z" transform="translate(-362.94 -222.31)"/><path class="a" d="M463.16,370.76v8.51a.69.69,0,0,1-.77.77H460a.69.69,0,0,1-.77-.77v-7.36a2.6,2.6,0,0,0-2.71-2.85,2.63,2.63,0,0,0-2.74,2.85v7.36a.69.69,0,0,1-.77.77h-2.38a.69.69,0,0,1-.77-.77v-12a1.95,1.95,0,0,1,3.89-.25,5.35,5.35,0,0,1,4.13-1.72c3.37,0,5.26,2.33,5.26,5.45" transform="translate(-362.94 -222.31)"/><path class="a" d="M480.54,367.28V379c0,4.05-3,7.44-8,7.44-3.12,0-6.62-1.34-6.62-3.42a1.82,1.82,0,0,1,1.83-1.83c1.42,0,2.63,1.4,5,1.4,2.11,0,3.72-1.5,3.72-2.93,0-.19-.05-.36-.27-.36s-.49.27-.88.47a5.55,5.55,0,0,1-2.57.57,7.5,7.5,0,0,1,0-15,5.85,5.85,0,0,1,3.91,1.37,2,2,0,0,1,3.83.6m-3.91,5.5a3.67,3.67,0,1,0-3.67,3.67,3.67,3.67,0,0,0,3.67-3.67" transform="translate(-362.94 -222.31)"/><path class="a" d="M375.07,349c1.72,0,2.57-.82,2.57-2.07,0-1.44-1.13-2-3.43-2.85l-3.32-1.17c-4.68-1.64-6.71-4.33-6.75-7.18-.12-5,3.59-8.62,10.45-8.62a16.1,16.1,0,0,1,7.84,2,3.25,3.25,0,0,1,1.76,2.77,2.81,2.81,0,0,1-2.81,2.85,11.49,11.49,0,0,1-3.94-1.05,13.589,13.589,0,0,0-3.71-.74c-1.6,0-2.42.94-2.42,2,0,1.29,1.05,2.07,3.2,2.81l4,1.4c4.8,1.68,6.12,4.49,6.16,6.86.08,4.72-3.51,8.78-11,8.78a20.86,20.86,0,0,1-8.46-2c-1.64-.86-2.3-1.91-2.3-3a2.8,2.8,0,0,1,2.81-2.85c1.21,0,2.81.86,4.88,1.36a20.82,20.82,0,0,0,4.45.74" transform="translate(-362.94 -222.31)"/><path class="a" d="M420.9,341.19v11.7a1.33,1.33,0,0,1-1.48,1.52h-2.57a1.34,1.34,0,0,1-1.52-1.52V342.83c0-2.61-1.6-4.06-3.86-4.06a3.67,3.67,0,0,0-3.9,4v10.14a1.33,1.33,0,0,1-1.48,1.52H403.5a1.35,1.35,0,0,1-1.52-1.52V342.83c0-2.61-1.6-4.06-3.86-4.06a3.73,3.73,0,0,0-3.9,4.06v10.06a1.33,1.33,0,0,1-1.48,1.52h-2.57a1.34,1.34,0,0,1-1.52-1.52V336.24a2.79,2.79,0,0,1,2.77-2.81,2.76,2.76,0,0,1,2.77,2.46,7.74,7.74,0,0,1,6-2.46,8,8,0,0,1,6.08,2.5,9.59,9.59,0,0,1,6.71-2.5c5.19,0,7.88,3.32,7.88,7.76" transform="translate(-362.94 -222.31)"/><path class="a" d="M445.66,336.24v16.65a1.33,1.33,0,0,1-1.48,1.52H441.6a1.35,1.35,0,0,1-1.52-1.52v-.27a7.69,7.69,0,0,1-5.46,2.18,10.69,10.69,0,0,1,0-21.37,8.33,8.33,0,0,1,5.58,2,2.8,2.8,0,0,1,5.46.86m-5.58,7.84a5.23,5.23,0,1,0-2.544,4.72,5.23,5.23,0,0,0,2.544-4.72" transform="translate(-362.94 -222.31)"/><path class="a" d="M460.59,338.89a5.21,5.21,0,0,0-5.15,5.34v9.09a1,1,0,0,1-1.09,1.09H451a1,1,0,0,1-1.09-1.09v-9a10.93,10.93,0,0,1,5.23-9.32,10.35,10.35,0,0,1,6.08-1.52,6.13,6.13,0,0,1,2.34.27,2.72,2.72,0,0,1,1.72,2.57,2.67,2.67,0,0,1-2.69,2.69c-.66,0-1.21-.08-1.95-.08" transform="translate(-362.94 -222.31)"/><path class="a" d="M480.56,351.61a2.8,2.8,0,0,1-2.81,2.81h-2.34c-2.77,0-4.21-.47-5.23-1.6s-1.44-3.12-1.44-6.09V339.2h-.51a2.69,2.69,0,1,1,0-5.38h.51v-3a2.69,2.69,0,0,1,2.85-2.73,2.66,2.66,0,0,1,2.73,2.73v3h3.55a2.69,2.69,0,0,1,0,5.38h-3.59v7.14c0,2,.86,2.5,2.46,2.5h1.09a2.79,2.79,0,0,1,2.81,2.77" transform="translate(-362.94 -222.31)"/></g></g></svg>